<?xml version="1.0" standalone="no"?>
<!DOCTYPE svg PUBLIC "-//W3C//DTD SVG 20010904//EN"
 "http://www.w3.org/TR/2001/REC-SVG-20010904/DTD/svg10.dtd">
<svg version="1.0" xmlns="http://www.w3.org/2000/svg"
 width="222.000000pt" height="196.000000pt" viewBox="0 0 222.000000 196.000000"
 preserveAspectRatio="xMidYMid meet">
<metadata>
Created by potrace 1.10, written by Peter Selinger 2001-2011
</metadata>
<g transform="translate(0.000000,196.000000) scale(0.100000,-0.100000)"
fill="#000000" stroke="none">
<path d="M1394 1844 c54 -7 100 -15 102 -17 2 -1 -3 -15 -11 -30 -14 -26 -13
-28 22 -42 20 -9 45 -13 55 -9 13 4 28 -4 47 -25 19 -20 35 -29 45 -25 11 4
16 1 16 -11 0 -15 -6 -16 -52 -8 -29 4 -174 7 -323 7 -235 -1 -282 -4 -365
-23 -114 -25 -134 -26 -126 -6 3 9 0 15 -9 15 -8 0 -15 -9 -15 -19 0 -12 -9
-22 -22 -26 -44 -12 -129 -48 -125 -52 3 -2 40 7 83 21 165 52 497 80 749 63
209 -14 210 -14 269 -52 54 -34 73 -54 41 -41 -8 3 -15 1 -15 -5 0 -6 -7 -8
-16 -5 -9 3 -12 2 -9 -5 4 -5 15 -7 26 -4 13 4 19 2 19 -9 0 -21 36 -53 93
-82 59 -29 57 -29 57 -1 0 44 -12 65 -51 87 -23 12 -38 28 -36 34 3 8 -25 28
-71 52 -73 37 -77 41 -84 81 -9 56 -23 80 -56 97 -40 20 -229 55 -297 54 -22
0 4 -6 59 -14z m232 -78 c8 -8 14 -21 14 -29 0 -9 5 -17 12 -19 9 -3 9 -6 0
-12 -7 -4 -14 3 -18 19 -8 33 -34 46 -73 39 -20 -4 -31 -2 -31 5 0 16 79 14
96 -3z"/>
<path d="M764 1751 c-17 -14 -39 -37 -49 -51 l-20 -25 23 19 c22 19 32 10 12
-10 -17 -17 -21 -54 -5 -54 15 0 28 27 18 42 -3 6 -1 8 5 4 6 -4 12 3 14 16 2
13 9 22 16 21 6 -2 12 1 12 6 0 5 11 11 25 13 14 3 25 1 25 -5 0 -6 5 -5 13 1
11 9 13 4 11 -23 -2 -19 -2 -35 0 -35 11 0 44 39 48 57 14 53 -95 71 -148 24z"/>
<path d="M1270 1624 c-8 -2 -76 -5 -150 -8 -74 -2 -148 -7 -165 -10 -16 -3
-47 -8 -67 -12 -23 -4 -35 -10 -31 -17 4 -7 -5 -8 -28 -4 -25 5 -30 4 -19 -3
12 -9 10 -10 -10 -8 -16 2 -24 -2 -22 -9 1 -8 -9 -13 -27 -13 -16 0 -38 -3
-48 -6 -11 -4 -14 -3 -7 3 11 8 15 43 5 43 -4 0 -15 -6 -26 -14 -11 -7 -43
-21 -72 -30 -67 -22 -123 -81 -123 -129 0 -46 8 -51 36 -18 14 17 50 38 86 51
35 13 68 29 74 37 6 7 36 16 65 19 30 2 88 10 129 15 142 20 236 28 400 36
134 6 154 9 105 14 -77 8 -339 -7 -430 -26 -65 -13 -182 -28 -142 -18 9 2 17
9 17 15 0 5 -7 8 -15 4 -8 -3 -15 -1 -15 4 0 6 16 8 38 4 20 -3 64 -1 97 5 77
14 404 43 414 37 4 -3 21 -1 37 4 27 8 27 8 -13 9 -26 1 -43 6 -43 13 0 6 -3
8 -7 5 -3 -4 -11 -3 -17 1 -6 5 -18 7 -26 6z"/>
<path d="M1265 1502 c-3 -3 -47 -7 -98 -9 -132 -5 -180 -9 -199 -18 -10 -4
-25 -4 -33 -1 -9 3 -37 1 -63 -4 -26 -5 -74 -11 -107 -14 -50 -4 -77 -11 -125
-32 -3 -1 -15 -5 -27 -9 -13 -4 -20 -11 -17 -16 3 -5 -1 -6 -8 -4 -19 8 -98
-53 -98 -75 0 -11 11 -32 24 -47 l25 -28 11 31 c6 16 38 54 71 83 l60 53 100
7 c68 4 110 3 128 -5 61 -26 69 -26 93 -1 21 23 28 24 78 17 30 -4 63 -4 72 1
9 5 72 12 140 16 l123 7 -75 12 c-43 6 -61 12 -42 13 18 0 31 5 28 10 -7 10
-53 20 -61 13z"/>
<path d="M1435 1460 c-6 -10 0 -14 40 -24 11 -3 -25 -4 -80 -2 -96 3 -96 -4 0
-19 l40 -7 -23 -18 c-13 -11 -23 -21 -22 -24 1 -18 -1 -19 -10 -6 -14 23 -3
-76 13 -105 11 -23 12 -20 13 33 0 72 22 108 76 124 89 26 176 -43 164 -130
-3 -24 -16 -56 -28 -70 -31 -37 -102 -42 -158 -13 -23 12 -37 15 -34 8 8 -20
66 -50 122 -62 43 -10 52 -9 52 3 0 18 61 83 72 76 4 -3 8 1 8 8 0 9 3 9 10
-2 12 -18 13 -33 2 -26 -4 2 -6 -11 -4 -30 2 -18 8 -32 12 -29 10 6 20 -45 21
-111 2 -53 -26 -165 -43 -175 -11 -7 -14 -151 -4 -168 4 -6 4 -16 0 -23 -4 -6
-6 -31 -5 -56 1 -44 1 -45 -29 -39 -41 9 -37 -2 11 -37 24 -17 38 -34 35 -42
-3 -8 -1 -14 3 -14 12 0 18 -89 7 -93 -15 -5 2 -37 20 -37 12 0 15 5 9 23 -4
12 -9 117 -12 233 -5 178 -3 222 12 279 10 42 18 115 19 189 2 102 -1 125 -16
144 -9 13 -20 44 -24 70 -5 38 -14 54 -45 80 -52 45 -50 56 6 47 66 -9 156
-52 186 -88 25 -30 28 -31 53 -18 14 8 28 22 31 31 8 26 -13 73 -29 67 -7 -3
-18 -1 -23 4 -7 7 -16 5 -27 -6 -19 -19 -22 -6 -3 14 10 11 9 13 -5 8 -10 -4
-18 -2 -18 4 0 6 -8 3 -17 -6 -15 -16 -18 -16 -28 -1 -7 9 -24 16 -39 16 -14
0 -26 4 -26 9 0 13 -93 21 -107 9 -8 -6 -23 -6 -45 0 -40 13 -88 13 -88 1 0
-5 -9 -9 -21 -9 -11 0 -17 5 -14 10 3 6 4 10 1 10 -3 0 -8 -5 -11 -10z"/>
<path d="M994 1355 c9 -13 16 -29 16 -36 0 -19 -50 -112 -67 -124 -9 -7 -18
-25 -20 -41 l-3 -29 14 31 c7 17 25 40 39 51 15 11 23 23 20 27 -3 3 -1 6 5 6
7 0 12 7 12 16 0 8 5 12 10 9 6 -3 10 -2 10 4 0 5 3 17 7 27 5 13 3 15 -7 9
-10 -6 -12 -3 -8 13 6 22 -16 62 -34 62 -6 0 -3 -11 6 -25z"/>
<path d="M1535 1356 c-21 -15 -17 -55 8 -70 25 -16 52 4 52 39 0 33 -33 51
-60 31z"/>
<path d="M800 1335 c-7 -8 -9 -15 -5 -15 4 0 2 -7 -5 -15 -16 -20 3 -45 35
-45 31 0 51 52 29 75 -19 19 -38 19 -54 0z"/>
<path d="M723 1318 c-39 -23 -39 -24 -18 -185 9 -65 27 -203 40 -308 14 -104
28 -202 31 -218 5 -22 3 -26 -10 -21 -14 5 -16 -3 -16 -54 0 -34 4 -63 8 -66
10 -6 112 71 112 84 0 6 -6 10 -14 10 -20 0 -63 99 -69 159 -3 27 -7 54 -10
58 -3 5 -7 47 -8 93 -2 98 -8 142 -19 135 -3 -2 -4 16 0 40 4 24 3 42 -2 39
-4 -3 -8 6 -8 20 0 13 -6 26 -12 28 -10 4 -8 19 6 64 10 32 21 52 23 44 3 -8
7 -22 10 -30 4 -8 5 -21 4 -29 -1 -7 2 -10 8 -6 6 3 21 -1 33 -9 12 -9 32 -16
45 -16 12 0 25 -5 29 -11 7 -12 24 6 24 26 0 6 -5 3 -10 -5 -6 -10 -10 -11
-10 -2 0 7 -14 12 -34 12 -60 0 -109 78 -88 140 13 36 3 38 -45 8z"/>
<path d="M1116 1281 c-91 -37 -133 -76 -184 -168 -23 -42 -16 -115 22 -218 23
-64 133 -144 199 -145 19 0 26 -4 21 -12 -13 -21 87 1 149 33 81 42 187 136
187 165 0 8 7 14 15 14 8 0 15 5 15 10 0 6 -4 10 -10 10 -5 0 -10 6 -10 12 0
24 -52 148 -61 148 -6 0 -8 -4 -4 -9 3 -5 10 -33 15 -62 12 -60 0 -111 -38
-173 -19 -31 -26 -36 -34 -25 -8 11 -9 10 -4 -3 3 -10 1 -20 -4 -23 -6 -4 -10
-1 -10 5 0 6 -11 3 -24 -7 -13 -10 -22 -21 -19 -25 2 -5 -3 -8 -11 -8 -9 0
-16 -5 -16 -10 0 -6 -11 -8 -26 -4 -18 5 -25 3 -20 -4 4 -7 -5 -9 -31 -5 -47
7 -101 18 -128 28 -13 4 -12 1 5 -9 23 -14 23 -15 5 -16 -33 0 -135 79 -135
106 0 6 -6 17 -14 23 -7 6 -19 37 -26 69 -14 67 -4 118 33 173 32 47 112 105
164 119 75 18 192 -7 207 -45 3 -8 9 -15 13 -14 20 3 27 -2 13 -12 -12 -8 -11
-9 5 -7 11 2 19 -2 18 -9 -2 -8 4 -10 14 -6 9 4 14 2 11 -3 -3 -5 -2 -18 2
-29 7 -19 8 -19 15 -2 11 28 -43 87 -108 119 -75 38 -148 44 -211 19z"/>
<path d="M1870 1264 c0 -8 -4 -13 -9 -10 -5 4 -6 -4 -3 -16 6 -22 6 -22 11 -3
4 19 30 -70 30 -105 1 -13 0 -13 -10 0 -9 13 -10 13 -6 0 2 -8 10 -14 16 -12
6 1 11 -8 11 -20 0 -12 3 -19 6 -15 3 3 -4 49 -16 101 -21 92 -30 115 -30 80z"/>
<path d="M531 1165 c-11 -79 -14 -121 -7 -114 7 7 29 180 23 185 -2 3 -10 -29
-16 -71z"/>
<path d="M1103 1032 c21 -23 21 -32 2 -32 -8 0 -15 -4 -15 -10 0 -15 26 -12
40 5 17 20 3 55 -22 55 -20 0 -20 -1 -5 -18z"/>
<path d="M520 850 c0 -102 1 -190 0 -196 0 -6 -14 -18 -32 -25 -43 -18 -92
-62 -119 -107 -12 -20 -48 -64 -80 -97 -32 -33 -67 -81 -79 -106 -11 -27 -50
-77 -88 -115 -64 -64 -121 -140 -79 -106 9 8 22 10 29 6 11 -6 11 -5 0 8 -11
13 -4 24 44 71 32 31 61 54 66 51 5 -3 5 -11 2 -17 -4 -7 -3 -8 2 -4 5 5 9 14
9 20 0 7 6 12 14 12 8 0 16 11 18 25 2 18 1 21 -6 10 -5 -8 -7 -18 -4 -24 3
-5 1 -6 -5 -2 -8 5 -7 19 5 49 28 70 44 87 78 81 28 -5 29 -4 10 9 -19 14 -18
16 18 53 20 21 37 42 37 47 0 4 6 5 13 1 6 -4 9 -4 5 1 -11 12 11 47 24 39 7
-5 9 -2 5 8 -3 9 0 21 6 27 15 15 30 14 21 -1 -5 -9 -3 -9 9 1 9 7 14 17 12
22 -3 4 14 17 37 28 l43 19 -4 194 c-1 106 -5 195 -7 198 -3 2 -4 -79 -4 -180z"/>
<path d="M1904 921 c-6 -64 -5 -117 1 -151 9 -45 10 -32 12 99 1 83 0 151 -1
151 -1 0 -7 -45 -12 -99z"/>
<path d="M1581 985 c-1 -12 3 -25 8 -30 6 -6 2 -24 -9 -45 -11 -19 -23 -44
-28 -55 -19 -39 -80 -92 -135 -118 -60 -29 -184 -49 -257 -42 -94 9 -181 26
-212 42 -31 15 -64 78 -74 142 -4 23 -10 44 -15 47 -17 10 2 -87 26 -139 31
-64 58 -78 185 -96 94 -14 162 -14 242 -2 29 5 57 7 62 4 4 -3 11 -1 15 4 3 5
20 16 38 24 40 19 123 87 123 101 0 6 10 19 22 29 11 11 17 19 12 19 -5 0 -1
6 8 13 20 15 35 67 20 67 -6 0 -15 12 -20 28 -9 22 -11 23 -11 7z"/>
<path d="M910 912 c0 -24 31 -106 46 -123 26 -29 38 -23 16 9 -10 15 -26 48
-36 75 -17 44 -26 58 -26 39z"/>
<path d="M1424 809 c-3 -6 -25 -19 -48 -29 -27 -12 -34 -19 -21 -19 18 -1 95
43 95 54 0 9 -19 5 -26 -6z"/>
<path d="M1931 644 c-1 -14 16 -32 53 -58 53 -36 93 -82 88 -99 -1 -5 1 -6 6
-3 5 3 19 -16 31 -43 13 -26 37 -59 54 -72 52 -41 65 -44 19 -4 -24 21 -56 63
-72 94 -28 56 -67 99 -128 141 -19 12 -37 32 -42 44 -9 21 -9 21 -9 0z"/>
<path d="M1578 546 c-10 -7 -15 -16 -12 -19 13 -13 -47 -32 -151 -48 -60 -10
-121 -20 -134 -23 -14 -3 -68 0 -120 7 -76 9 -90 13 -66 19 24 5 20 6 -17 5
-27 -1 -48 0 -48 3 0 3 -20 10 -45 16 -29 7 -45 7 -45 1 0 -6 -8 0 -19 11 -10
12 -21 19 -25 15 -3 -3 -6 -1 -6 6 0 7 -4 10 -8 7 -7 -4 -8 -28 -3 -76 3 -26
75 -97 133 -129 49 -28 69 -33 148 -37 51 -2 118 0 149 6 31 6 73 12 93 14 96
8 235 160 201 219 -7 13 -11 13 -25 3z m22 -26 c0 -6 -11 -22 -25 -35 -13 -14
-19 -25 -13 -25 14 0 -9 -28 -34 -41 -13 -7 -23 -7 -32 0 -8 7 -12 5 -13 -10
-1 -12 3 -17 9 -13 7 4 8 2 4 -4 -4 -7 -14 -12 -22 -12 -8 0 -14 -4 -14 -9 0
-5 -7 -12 -16 -15 -8 -3 -12 -2 -9 4 3 6 -1 7 -9 4 -9 -3 -16 -11 -16 -16 0
-6 -9 -8 -20 -5 -11 3 -20 0 -20 -6 0 -7 -5 -5 -10 3 -8 13 -11 13 -19 1 -7
-10 -39 -14 -133 -15 -108 0 -130 3 -171 22 -26 12 -47 28 -47 36 0 8 -13 19
-29 24 -15 5 -38 26 -50 46 -25 40 -25 68 -1 44 21 -20 86 -35 236 -53 l131
-16 128 26 c120 25 175 46 175 66 0 5 5 9 10 9 6 0 10 -5 10 -10z"/>
<path d="M433 463 c-21 -61 -37 -87 -91 -150 -50 -58 -102 -144 -102 -168 0
-9 -60 -84 -94 -117 -16 -15 -24 -28 -18 -28 13 0 92 75 92 88 0 5 9 19 20 32
11 13 25 41 32 63 9 31 24 47 71 79 32 22 82 49 110 61 29 11 53 21 55 22 4 3
-59 135 -64 135 -3 0 -7 -8 -11 -17z"/>
<path d="M2077 450 c-3 -8 -15 -46 -27 -85 -12 -38 -24 -76 -26 -82 -3 -7 -1
-13 4 -13 23 0 133 -74 157 -107 37 -47 43 -35 10 21 -19 32 -26 55 -22 74 5
22 -2 35 -36 69 -33 34 -42 53 -47 90 -4 27 -9 41 -13 33z"/>
<path d="M1390 275 c0 -19 -8 -75 -19 -123 -31 -144 -32 -152 -17 -152 9 0 20
35 35 108 23 116 27 187 11 197 -6 4 -10 -8 -10 -30z"/>
</g>
</svg>
